<mxfile host="app.diagrams.net" modified="2022-09-21T23:39:30.042Z" agent="5.0 (Windows NT 10.0; Win64; x64) AppleWebKit/537.36 (KHTML, like Gecko) Chrome/105.0.0.0 Safari/537.36" etag="_mqYCPp2QILA4O5-13iz" version="20.3.3" type="github">
  <diagram id="qQjTJ5AZ33V-DFyosNaf" name="Página-1">
    <mxGraphModel dx="1108" dy="442" grid="1" gridSize="10" guides="1" tooltips="1" connect="1" arrows="1" fold="1" page="1" pageScale="1" pageWidth="827" pageHeight="1169" math="0" shadow="0">
      <root>
        <mxCell id="0" />
        <mxCell id="1" parent="0" />
        <mxCell id="G1MvD2G5489Z8Exe5ZAQ-20" style="edgeStyle=orthogonalEdgeStyle;rounded=0;orthogonalLoop=1;jettySize=auto;html=1;" edge="1" parent="1" source="G1MvD2G5489Z8Exe5ZAQ-1" target="G1MvD2G5489Z8Exe5ZAQ-5">
          <mxGeometry relative="1" as="geometry" />
        </mxCell>
        <mxCell id="G1MvD2G5489Z8Exe5ZAQ-1" value="ExplorerFile" style="swimlane;fontStyle=1;align=center;verticalAlign=top;childLayout=stackLayout;horizontal=1;startSize=26;horizontalStack=0;resizeParent=1;resizeParentMax=0;resizeLast=0;collapsible=1;marginBottom=0;" vertex="1" parent="1">
          <mxGeometry x="60" y="68" width="220" height="86" as="geometry" />
        </mxCell>
        <mxCell id="G1MvD2G5489Z8Exe5ZAQ-19" value="- List&lt;CompositeFolder&gt;  filesOrFolder" style="text;strokeColor=none;fillColor=none;align=left;verticalAlign=top;spacingLeft=4;spacingRight=4;overflow=hidden;rotatable=0;points=[[0,0.5],[1,0.5]];portConstraint=eastwest;" vertex="1" parent="G1MvD2G5489Z8Exe5ZAQ-1">
          <mxGeometry y="26" width="220" height="26" as="geometry" />
        </mxCell>
        <mxCell id="G1MvD2G5489Z8Exe5ZAQ-3" value="" style="line;strokeWidth=1;fillColor=none;align=left;verticalAlign=middle;spacingTop=-1;spacingLeft=3;spacingRight=3;rotatable=0;labelPosition=right;points=[];portConstraint=eastwest;strokeColor=inherit;" vertex="1" parent="G1MvD2G5489Z8Exe5ZAQ-1">
          <mxGeometry y="52" width="220" height="8" as="geometry" />
        </mxCell>
        <mxCell id="G1MvD2G5489Z8Exe5ZAQ-4" value="+ getNames()" style="text;strokeColor=none;fillColor=none;align=left;verticalAlign=top;spacingLeft=4;spacingRight=4;overflow=hidden;rotatable=0;points=[[0,0.5],[1,0.5]];portConstraint=eastwest;" vertex="1" parent="G1MvD2G5489Z8Exe5ZAQ-1">
          <mxGeometry y="60" width="220" height="26" as="geometry" />
        </mxCell>
        <mxCell id="G1MvD2G5489Z8Exe5ZAQ-5" value="&lt;&lt;abstract&gt;&gt;&#xa;CompositeFolder" style="swimlane;fontStyle=1;align=center;verticalAlign=top;childLayout=stackLayout;horizontal=1;startSize=36;horizontalStack=0;resizeParent=1;resizeParentMax=0;resizeLast=0;collapsible=1;marginBottom=0;" vertex="1" parent="1">
          <mxGeometry x="400" y="50" width="160" height="122" as="geometry" />
        </mxCell>
        <mxCell id="G1MvD2G5489Z8Exe5ZAQ-6" value="- nombre:String" style="text;strokeColor=none;fillColor=none;align=left;verticalAlign=top;spacingLeft=4;spacingRight=4;overflow=hidden;rotatable=0;points=[[0,0.5],[1,0.5]];portConstraint=eastwest;" vertex="1" parent="G1MvD2G5489Z8Exe5ZAQ-5">
          <mxGeometry y="36" width="160" height="26" as="geometry" />
        </mxCell>
        <mxCell id="G1MvD2G5489Z8Exe5ZAQ-7" value="" style="line;strokeWidth=1;fillColor=none;align=left;verticalAlign=middle;spacingTop=-1;spacingLeft=3;spacingRight=3;rotatable=0;labelPosition=right;points=[];portConstraint=eastwest;strokeColor=inherit;" vertex="1" parent="G1MvD2G5489Z8Exe5ZAQ-5">
          <mxGeometry y="62" width="160" height="8" as="geometry" />
        </mxCell>
        <mxCell id="G1MvD2G5489Z8Exe5ZAQ-9" value="+ abstract add()" style="text;strokeColor=none;fillColor=none;align=left;verticalAlign=top;spacingLeft=4;spacingRight=4;overflow=hidden;rotatable=0;points=[[0,0.5],[1,0.5]];portConstraint=eastwest;" vertex="1" parent="G1MvD2G5489Z8Exe5ZAQ-5">
          <mxGeometry y="70" width="160" height="26" as="geometry" />
        </mxCell>
        <mxCell id="G1MvD2G5489Z8Exe5ZAQ-8" value="+ abstract delete()" style="text;strokeColor=none;fillColor=none;align=left;verticalAlign=top;spacingLeft=4;spacingRight=4;overflow=hidden;rotatable=0;points=[[0,0.5],[1,0.5]];portConstraint=eastwest;" vertex="1" parent="G1MvD2G5489Z8Exe5ZAQ-5">
          <mxGeometry y="96" width="160" height="26" as="geometry" />
        </mxCell>
        <mxCell id="G1MvD2G5489Z8Exe5ZAQ-24" style="edgeStyle=orthogonalEdgeStyle;rounded=0;orthogonalLoop=1;jettySize=auto;html=1;" edge="1" parent="1" source="G1MvD2G5489Z8Exe5ZAQ-10" target="G1MvD2G5489Z8Exe5ZAQ-5">
          <mxGeometry relative="1" as="geometry" />
        </mxCell>
        <mxCell id="G1MvD2G5489Z8Exe5ZAQ-10" value="File" style="swimlane;fontStyle=1;align=center;verticalAlign=top;childLayout=stackLayout;horizontal=1;startSize=26;horizontalStack=0;resizeParent=1;resizeParentMax=0;resizeLast=0;collapsible=1;marginBottom=0;" vertex="1" parent="1">
          <mxGeometry x="290" y="290" width="160" height="60" as="geometry" />
        </mxCell>
        <mxCell id="G1MvD2G5489Z8Exe5ZAQ-11" value="- formato :String" style="text;strokeColor=none;fillColor=none;align=left;verticalAlign=top;spacingLeft=4;spacingRight=4;overflow=hidden;rotatable=0;points=[[0,0.5],[1,0.5]];portConstraint=eastwest;" vertex="1" parent="G1MvD2G5489Z8Exe5ZAQ-10">
          <mxGeometry y="26" width="160" height="26" as="geometry" />
        </mxCell>
        <mxCell id="G1MvD2G5489Z8Exe5ZAQ-12" value="" style="line;strokeWidth=1;fillColor=none;align=left;verticalAlign=middle;spacingTop=-1;spacingLeft=3;spacingRight=3;rotatable=0;labelPosition=right;points=[];portConstraint=eastwest;strokeColor=inherit;" vertex="1" parent="G1MvD2G5489Z8Exe5ZAQ-10">
          <mxGeometry y="52" width="160" height="8" as="geometry" />
        </mxCell>
        <mxCell id="G1MvD2G5489Z8Exe5ZAQ-22" style="edgeStyle=orthogonalEdgeStyle;rounded=0;orthogonalLoop=1;jettySize=auto;html=1;" edge="1" parent="1" source="G1MvD2G5489Z8Exe5ZAQ-14" target="G1MvD2G5489Z8Exe5ZAQ-5">
          <mxGeometry relative="1" as="geometry" />
        </mxCell>
        <mxCell id="G1MvD2G5489Z8Exe5ZAQ-23" style="edgeStyle=orthogonalEdgeStyle;rounded=0;orthogonalLoop=1;jettySize=auto;html=1;" edge="1" parent="1" source="G1MvD2G5489Z8Exe5ZAQ-14" target="G1MvD2G5489Z8Exe5ZAQ-5">
          <mxGeometry relative="1" as="geometry">
            <Array as="points">
              <mxPoint x="720" y="320" />
              <mxPoint x="720" y="110" />
            </Array>
          </mxGeometry>
        </mxCell>
        <mxCell id="G1MvD2G5489Z8Exe5ZAQ-14" value="Folder" style="swimlane;fontStyle=1;align=center;verticalAlign=top;childLayout=stackLayout;horizontal=1;startSize=26;horizontalStack=0;resizeParent=1;resizeParentMax=0;resizeLast=0;collapsible=1;marginBottom=0;" vertex="1" parent="1">
          <mxGeometry x="475" y="290" width="220" height="60" as="geometry" />
        </mxCell>
        <mxCell id="G1MvD2G5489Z8Exe5ZAQ-15" value="- List&lt;CompositeFolder&gt;  filesOrFolder" style="text;strokeColor=none;fillColor=none;align=left;verticalAlign=top;spacingLeft=4;spacingRight=4;overflow=hidden;rotatable=0;points=[[0,0.5],[1,0.5]];portConstraint=eastwest;" vertex="1" parent="G1MvD2G5489Z8Exe5ZAQ-14">
          <mxGeometry y="26" width="220" height="26" as="geometry" />
        </mxCell>
        <mxCell id="G1MvD2G5489Z8Exe5ZAQ-16" value="" style="line;strokeWidth=1;fillColor=none;align=left;verticalAlign=middle;spacingTop=-1;spacingLeft=3;spacingRight=3;rotatable=0;labelPosition=right;points=[];portConstraint=eastwest;strokeColor=inherit;" vertex="1" parent="G1MvD2G5489Z8Exe5ZAQ-14">
          <mxGeometry y="52" width="220" height="8" as="geometry" />
        </mxCell>
        <mxCell id="G1MvD2G5489Z8Exe5ZAQ-21" value="N" style="text;html=1;align=center;verticalAlign=middle;resizable=0;points=[];autosize=1;strokeColor=none;fillColor=none;" vertex="1" parent="1">
          <mxGeometry x="370" y="85" width="30" height="30" as="geometry" />
        </mxCell>
        <mxCell id="G1MvD2G5489Z8Exe5ZAQ-25" value="N" style="text;html=1;align=center;verticalAlign=middle;resizable=0;points=[];autosize=1;strokeColor=none;fillColor=none;" vertex="1" parent="1">
          <mxGeometry x="570" y="85" width="30" height="30" as="geometry" />
        </mxCell>
      </root>
    </mxGraphModel>
  </diagram>
</mxfile>
